<?xml version="1.0" standalone="no"?>
<!DOCTYPE svg PUBLIC "-//W3C//DTD SVG 20010904//EN"
 "http://www.w3.org/TR/2001/REC-SVG-20010904/DTD/svg10.dtd">
<svg version="1.0" xmlns="http://www.w3.org/2000/svg"
 width="1000.000000pt" height="1000.000000pt" viewBox="0 0 1000.000000 1000.000000"
 preserveAspectRatio="xMidYMid meet">
<metadata>
Created by potrace 1.11, written by Peter Selinger 2001-2013
</metadata>
<g transform="translate(0.000000,1000.000000) scale(0.100000,-0.100000)"
fill="#000000" stroke="none">
<path d="M0 7854 c0 -1213 4 -2143 9 -2140 4 3 14 19 21 35 7 17 17 29 23 28
6 -1 11 3 12 9 0 6 8 18 18 28 9 10 14 22 11 28 -4 7 -2 8 5 4 6 -4 9 -11 6
-16 -3 -5 -1 -11 4 -14 5 -4 7 7 4 26 -4 27 -3 30 10 20 18 -15 47 14 43 43
-4 22 22 58 35 49 5 -3 9 0 9 6 0 6 5 8 10 5 9 -6 14 8 11 28 0 4 6 7 14 7 8
0 15 5 15 10 0 13 69 80 82 80 7 0 6 5 -1 14 -10 12 -6 18 18 32 16 10 27 22
24 27 -3 5 0 7 8 5 8 -3 13 -15 11 -26 -2 -12 2 -22 8 -22 6 0 8 5 5 10 -4 6
-1 18 7 27 9 12 9 15 0 9 -6 -4 -12 -4 -12 1 1 14 27 43 38 43 6 0 14 5 18 12
5 7 2 9 -9 5 -11 -4 -14 -2 -10 9 6 17 13 17 48 4 17 -7 24 -7 20 0 -3 6 -13
10 -21 10 -8 0 -14 5 -14 11 0 5 -5 7 -12 3 -7 -4 -8 -3 -4 4 4 6 14 8 24 5
15 -6 15 -4 4 9 -12 14 -10 16 10 10 21 -5 22 -4 9 11 -7 9 -11 18 -7 18 3 1
11 3 16 4 6 1 14 3 20 4 5 0 7 8 4 16 -4 11 1 15 17 16 23 0 23 1 4 9 -17 7
-18 9 -2 9 9 1 23 12 29 26 9 21 14 23 26 12 13 -9 14 -9 8 1 -4 6 -2 12 4 12
6 0 15 12 20 26 6 14 14 23 19 19 6 -3 8 4 6 15 -2 11 1 20 6 20 6 0 7 6 3 13
-5 7 0 6 11 -3 11 -9 16 -10 11 -2 -4 7 -1 12 9 12 10 0 13 -5 9 -12 -4 -7 -3
-9 1 -5 12 10 15 38 4 32 -5 -4 -6 1 -3 9 3 9 9 15 12 14 20 -2 25 3 12 12
-13 8 -12 10 4 10 11 0 16 3 13 7 -14 13 16 33 42 28 16 -3 20 -2 10 2 -9 5
-15 16 -13 26 4 27 12 32 29 17 9 -7 15 -9 14 -4 -4 23 3 26 22 8 22 -19 22
-19 11 2 -6 12 -8 24 -5 28 3 3 1 6 -6 6 -7 0 -10 4 -6 10 3 5 12 7 21 3 8 -3
14 -2 13 3 -4 22 2 34 19 34 9 0 13 -4 7 -8 -13 -10 -16 -44 -2 -39 5 1 12 21
14 42 2 22 10 45 18 51 8 6 15 16 15 22 0 6 16 24 36 40 20 17 33 35 30 41 -4
6 -2 11 4 11 6 0 8 5 5 10 -3 6 -1 10 6 10 6 0 18 8 26 18 10 11 12 12 8 2 -4
-10 -1 -9 8 3 9 10 21 15 31 11 9 -3 16 -1 16 6 0 6 -4 9 -9 6 -5 -3 -15 2
-22 11 -8 9 -9 14 -3 10 11 -6 21 2 70 58 14 17 23 23 19 15 -4 -8 0 -6 9 4 8
10 17 24 19 29 4 13 37 1 37 -13 0 -6 -4 -9 -9 -5 -5 3 -12 1 -15 -4 -10 -16
11 -22 24 -6 14 17 6 33 -24 45 -17 7 -18 9 -3 9 10 1 16 5 12 10 -3 6 6 8 22
5 27 -5 27 -5 8 10 -19 15 -13 21 20 17 6 0 11 11 11 25 2 23 1 24 -13 7 -8
-10 -11 -11 -7 -3 11 24 36 50 48 50 6 0 5 -5 -2 -12 -7 -7 -12 -16 -12 -22 0
-5 6 -1 14 9 7 10 11 28 9 39 -3 15 -2 17 4 8 7 -10 13 -8 27 7 9 10 16 25 14
32 -2 8 3 13 10 11 6 -1 12 3 12 9 0 5 6 7 13 3 9 -5 9 -4 0 6 -18 19 15 44
36 27 11 -9 13 -9 8 0 -4 6 -2 15 4 18 5 4 8 14 4 23 -3 9 -3 14 0 10 9 -9 56
41 61 65 4 22 23 39 36 31 4 -3 8 2 8 10 0 8 4 18 10 21 6 3 7 -1 4 -12 -4
-15 -3 -14 7 2 7 11 17 23 23 27 8 5 7 8 -1 8 -7 0 -13 5 -13 11 0 6 6 9 14 6
8 -3 24 6 37 21 19 21 20 23 4 12 -20 -15 -20 -14 -1 8 11 12 26 22 35 22 14
0 14 2 1 10 -12 8 -10 10 10 11 23 0 23 1 5 9 -19 8 -19 9 1 9 23 1 39 26 27
43 -3 6 -1 8 5 4 5 -3 13 0 16 6 3 9 9 7 20 -6 9 -11 16 -15 16 -10 0 6 -6 16
-12 23 -11 10 -8 16 12 33 14 11 24 22 22 24 -2 3 -1 10 1 17 3 6 6 3 6 -7 1
-11 4 -16 7 -13 4 3 15 2 25 -3 12 -7 20 -6 25 2 4 7 3 8 -4 4 -7 -4 -12 -2
-12 4 0 7 9 14 20 17 11 3 20 9 20 13 0 12 -33 5 -38 -8 -5 -16 -32 -15 -32 1
0 13 26 39 45 46 36 13 37 14 23 22 -10 7 -7 11 10 15 12 4 22 11 21 18 -1 6
-1 18 0 26 1 13 2 13 11 0 8 -13 10 -12 10 3 0 9 5 17 11 17 5 0 7 6 3 13 -6
10 -4 10 7 0 7 -7 18 -13 24 -13 5 0 4 4 -4 9 -12 8 -13 14 -3 36 7 14 17 23
23 20 12 -8 49 23 49 41 0 7 10 16 21 19 14 5 18 10 10 14 -9 6 -7 12 5 22 9
7 20 22 24 34 8 19 9 19 9 1 1 -20 1 -20 15 0 11 14 11 21 3 26 -8 5 -6 8 6 8
9 0 17 -4 17 -10 0 -5 7 -7 16 -3 15 5 15 7 -1 15 -15 9 -15 12 -1 26 8 10 15
22 15 27 1 6 6 11 11 11 6 1 15 2 20 3 6 0 10 7 10 14 0 8 7 14 15 14 9 0 14
-6 11 -13 -6 -15 10 -29 18 -16 3 5 0 17 -8 27 -11 15 -9 21 10 42 14 15 28
22 35 17 7 -4 10 -3 6 2 -3 5 1 18 9 29 8 10 14 17 15 14 0 -2 2 -12 4 -21 2
-10 -1 -18 -6 -18 -5 0 -9 -5 -9 -12 0 -6 9 -3 20 7 14 13 17 22 10 29 -15 15
-12 56 5 62 8 4 12 11 8 18 -3 6 -3 8 2 4 4 -4 16 -3 26 3 14 7 19 6 19 -2 0
-8 4 -9 13 0 8 6 18 7 22 3 5 -4 5 -2 2 4 -4 6 -18 10 -32 9 -14 -2 -25 0 -25
4 0 14 24 31 44 32 21 0 21 0 1 9 -11 5 -14 9 -7 9 6 1 13 11 13 24 1 16 2 18
6 5 3 -13 14 -18 36 -17 30 2 30 2 5 6 l-28 4 25 23 c14 13 21 27 17 31 -4 5
1 5 11 2 12 -5 17 -3 15 5 -5 13 26 48 42 48 6 0 10 5 10 11 0 5 -5 7 -12 3
-7 -4 -8 -3 -4 4 4 7 14 12 22 12 8 0 13 4 10 9 -3 4 3 16 14 26 11 10 18 21
15 24 -2 4 0 13 6 21 7 12 9 10 9 -8 0 -13 4 -20 10 -17 6 3 10 15 10 26 0 11
7 19 18 19 14 0 15 2 2 10 -12 7 -12 12 4 29 10 11 23 18 27 15 5 -3 9 2 9 10
0 8 9 20 20 26 11 6 20 15 20 21 0 5 15 25 34 44 19 18 31 36 28 40 -4 3 1 3
11 -1 13 -5 16 -2 11 10 -5 12 -2 15 10 10 9 -3 16 -1 16 5 0 7 9 22 20 34 11
12 18 28 15 35 -3 9 0 12 9 9 8 -3 17 1 20 9 3 9 10 12 16 9 5 -3 10 -1 10 5
0 6 4 8 10 5 5 -3 18 -1 27 5 16 10 16 10 -3 5 -15 -4 -23 0 -26 13 -4 12 1
18 13 19 11 1 19 -3 19 -9 0 -6 3 -8 6 -5 4 4 1 14 -7 24 -9 10 -9 14 -2 10 8
-5 15 1 19 18 3 14 12 25 20 25 8 0 14 6 14 13 0 6 16 23 34 37 22 16 30 28
23 32 -9 6 -9 8 1 8 6 0 12 6 12 14 0 9 7 13 18 11 11 -2 19 3 19 10 0 8 -4
12 -8 10 -4 -3 -2 6 4 20 8 17 13 20 15 10 2 -8 8 -13 13 -10 5 4 9 -2 10 -12
0 -14 2 -15 6 -3 9 25 25 40 35 34 5 -3 4 -13 -4 -22 -10 -14 -10 -15 2 -5 31
28 16 51 -18 29 -8 -5 -18 -4 -23 3 -5 6 -6 9 -2 6 3 -3 14 5 22 17 20 29 51
36 51 11 0 -13 3 -14 12 -5 9 9 10 15 2 20 -6 4 -14 16 -17 26 -6 16 -5 17 7
7 10 -8 16 -9 21 -1 3 5 1 10 -5 10 -6 0 -8 5 -5 11 4 6 9 8 12 5 3 -3 14 5
23 17 10 12 22 19 26 15 4 -4 1 -16 -7 -25 -12 -16 -12 -17 2 -6 9 7 18 11 21
8 2 -3 5 2 5 10 0 8 -4 15 -8 15 -4 0 -10 7 -13 16 -4 10 -2 13 6 8 8 -5 9 -2
5 9 -3 9 -1 19 5 23 7 5 8 2 4 -7 -4 -8 -1 -6 7 4 8 9 19 17 25 17 6 0 9 7 6
15 -5 11 -2 13 10 9 9 -3 16 -1 16 5 0 6 -5 11 -12 11 -6 0 -8 3 -4 8 4 4 12
7 18 7 6 0 12 8 14 18 1 11 4 20 6 21 2 0 14 10 27 21 14 11 21 14 16 6 -5
-10 -4 -12 3 -7 7 4 12 17 13 29 0 21 1 21 9 2 5 -13 3 -26 -5 -35 -14 -17
-16 -50 -3 -50 5 0 6 10 3 21 -5 15 -4 19 4 15 7 -5 10 -2 9 6 -2 7 3 12 10
11 6 -2 12 4 12 12 0 8 5 15 10 15 6 0 10 5 10 12 0 6 -9 3 -20 -7 -20 -18
-20 -17 -20 8 0 19 4 25 15 21 10 -4 15 0 15 14 0 11 7 23 16 26 8 3 12 11 8
17 -4 8 -3 9 4 5 7 -4 12 -2 12 4 0 6 5 8 10 5 6 -3 10 -1 10 6 0 8 7 6 19 -5
12 -11 21 -14 26 -7 3 6 4 12 1 12 -12 3 -26 7 -33 9 -5 1 -11 2 -15 1 -5 0
-8 4 -8 9 0 6 9 10 19 10 12 0 23 11 29 30 8 21 15 28 27 24 11 -5 14 -2 9 10
-6 15 -164 16 -1860 16 l-1854 0 0 -2146z m160 -1965 c0 -5 -4 -7 -10 -4 -5 3
-10 -2 -10 -11 0 -10 -3 -15 -6 -11 -9 9 3 37 16 37 5 0 10 -5 10 -11z"/>
<path d="M3750 9986 c7 -7 13 -7 20 0 6 6 3 10 -10 10 -13 0 -16 -4 -10 -10z"/>
<path d="M3698 9933 c7 -3 16 -2 19 1 4 3 -2 6 -13 5 -11 0 -14 -3 -6 -6z"/>
<path d="M3698 9913 c7 -3 16 -2 19 1 4 3 -2 6 -13 5 -11 0 -14 -3 -6 -6z"/>
<path d="M3630 9844 c0 -8 5 -12 10 -9 6 3 10 10 10 16 0 5 -4 9 -10 9 -5 0
-10 -7 -10 -16z"/>
<path d="M3608 9813 c7 -3 16 -2 19 1 4 3 -2 6 -13 5 -11 0 -14 -3 -6 -6z"/>
<path d="M3468 9658 c2 -10 6 -18 7 -18 1 0 5 8 7 18 3 11 0 19 -7 19 -7 0
-10 -8 -7 -19z"/>
<path d="M3385 9590 c-3 -5 1 -10 10 -10 9 0 13 5 10 10 -3 6 -8 10 -10 10 -2
0 -7 -4 -10 -10z"/>
<path d="M3206 9354 c-9 -24 -2 -26 12 -4 7 11 8 20 3 20 -5 0 -12 -7 -15 -16z"/>
<path d="M3169 9343 c-1 -5 -1 -15 0 -25 1 -9 -3 -19 -9 -23 -5 -3 -10 -11
-10 -18 0 -6 7 -2 14 9 8 12 14 31 13 42 -1 22 -6 29 -8 15z"/>
<path d="M3094 9232 c3 -5 0 -13 -6 -15 -9 -4 -10 -6 -1 -6 17 -1 25 16 12 25
-7 4 -9 3 -5 -4z"/>
<path d="M3055 9203 c2 -10 4 -21 4 -25 1 -5 6 -8 12 -8 8 0 7 6 -2 17 -8 9
-12 18 -11 20 2 3 1 7 -1 10 -3 3 -4 -3 -2 -14z"/>
<path d="M2951 9061 c-8 -5 -9 -11 -3 -15 5 -3 12 1 16 9 6 17 6 18 -13 6z"/>
<path d="M2906 9025 c-16 -12 -17 -15 -4 -15 8 0 21 7 28 15 16 19 1 19 -24 0z"/>
<path d="M2827 8965 c-4 -8 -3 -16 1 -19 4 -3 9 4 9 15 2 23 -3 25 -10 4z"/>
<path d="M2855 8950 c3 -5 8 -10 11 -10 2 0 4 5 4 10 0 6 -5 10 -11 10 -5 0
-7 -4 -4 -10z"/>
<path d="M2817 8910 c3 -11 9 -17 15 -14 5 3 4 12 -3 20 -16 19 -18 18 -12 -6z"/>
<path d="M2771 8900 c-9 -5 -8 -9 5 -14 9 -4 21 -3 26 2 12 12 -15 23 -31 12z"/>
<path d="M2749 8827 c-9 -7 -14 -18 -11 -25 3 -10 9 -7 19 8 18 25 14 33 -8
17z"/>
<path d="M2705 8800 c-3 -5 -3 -10 2 -10 4 0 1 -4 -7 -10 -8 -5 -12 -11 -9
-15 3 -3 14 3 23 14 10 11 13 21 7 25 -5 4 -12 2 -16 -4z"/>
<path d="M2651 8744 c0 -11 3 -14 6 -6 3 7 2 16 -1 19 -3 4 -6 -2 -5 -13z"/>
<path d="M2483 8536 c-10 -11 -9 -15 2 -20 10 -4 15 1 15 14 0 23 -1 24 -17 6z"/>
<path d="M2410 8459 c0 -5 9 -9 20 -9 11 0 20 2 20 4 0 2 -9 6 -20 9 -11 3
-20 1 -20 -4z"/>
<path d="M2398 8423 c7 -3 16 -2 19 1 4 3 -2 6 -13 5 -11 0 -14 -3 -6 -6z"/>
<path d="M2213 8275 c4 -4 -1 -18 -10 -29 -10 -12 -11 -16 -4 -9 7 6 20 9 27
6 20 -7 17 12 -3 28 -10 7 -15 9 -10 4z"/>
<path d="M2250 8265 c0 -9 6 -12 15 -9 8 4 15 7 15 9 0 2 -7 5 -15 9 -9 3 -15
0 -15 -9z"/>
<path d="M2133 8146 c-4 -5 -1 -6 5 -2 5 3 12 2 14 -3 1 -5 11 -4 21 4 17 12
16 13 -8 11 -15 0 -29 -5 -32 -10z"/>
<path d="M2800 7301 c0 -750 0 -770 19 -776 35 -11 71 -46 71 -69 0 -12 -9
-39 -20 -61 -24 -47 -19 -89 17 -141 34 -51 38 -82 20 -166 -29 -134 -30 -168
-8 -253 23 -87 40 -119 73 -136 13 -6 37 -24 54 -40 20 -19 56 -37 105 -50 41
-12 87 -28 102 -36 l28 -14 -21 -28 c-23 -34 -26 -83 -6 -100 27 -23 178 -91
200 -91 12 0 26 -4 31 -9 6 -5 38 -12 73 -15 l62 -7 0 758 0 758 -50 24 c-128
61 -310 203 -406 319 -197 235 -305 510 -321 815 -3 48 -9 87 -14 87 -5 0 -9
-320 -9 -769z"/>
<path d="M2018 8026 c3 -11 7 -15 10 -8 2 6 8 12 13 12 6 0 7 -5 3 -11 -4 -8
0 -8 15 0 24 13 29 26 6 17 -8 -3 -15 -2 -15 2 0 4 -8 8 -19 8 -13 0 -17 -6
-13 -20z"/>
<path d="M1977 7969 c7 -7 15 -10 18 -7 3 3 -2 9 -12 12 -14 6 -15 5 -6 -5z"/>
<path d="M1968 7943 c10 -4 8 -8 -5 -18 -10 -7 -15 -16 -12 -20 9 -9 40 25 34
36 -4 5 -12 9 -18 8 -8 0 -8 -2 1 -6z"/>
<path d="M1920 7875 c0 -8 2 -15 4 -15 2 0 6 7 10 15 3 8 1 15 -4 15 -6 0 -10
-7 -10 -15z"/>
<path d="M1830 7791 c0 -5 5 -13 10 -16 6 -3 10 -2 10 4 0 5 -4 13 -10 16 -5
3 -10 2 -10 -4z"/>
<path d="M1765 7700 c-3 -6 1 -7 9 -4 18 7 21 14 7 14 -6 0 -13 -4 -16 -10z"/>
<path d="M1732 7664 c-12 -8 -22 -21 -22 -27 0 -7 7 -4 14 6 10 13 15 14 18 5
3 -7 7 -3 10 10 7 26 8 26 -20 6z"/>
<path d="M1646 7561 c-9 -9 -16 -22 -16 -27 0 -5 4 -4 8 2 4 6 15 15 26 21 10
6 14 13 9 16 -6 4 -18 -2 -27 -12z"/>
<path d="M1545 7500 c-3 -5 -1 -10 4 -10 6 0 11 5 11 10 0 6 -2 10 -4 10 -3 0
-8 -4 -11 -10z"/>
<path d="M1576 7493 c-6 -14 -5 -15 5 -6 7 7 10 15 7 18 -3 3 -9 -2 -12 -12z"/>
<path d="M1520 7411 c0 -7 -5 -9 -12 -5 -7 5 -8 3 -3 -5 5 -9 10 -10 18 -2 6
6 8 14 4 18 -4 3 -7 1 -7 -6z"/>
<path d="M1413 7314 c-3 -10 -11 -22 -17 -26 -8 -5 -7 -8 1 -8 14 0 38 39 29
47 -3 3 -9 -3 -13 -13z"/>
<path d="M1355 7231 c-6 -11 9 -23 19 -14 9 9 7 23 -3 23 -6 0 -12 -4 -16 -9z"/>
<path d="M1321 7174 c0 -11 3 -14 6 -6 3 7 2 16 -1 19 -3 4 -6 -2 -5 -13z"/>
<path d="M1175 7051 c-6 -11 13 -26 22 -17 4 3 1 6 -6 6 -7 0 -9 5 -6 10 3 6
4 10 1 10 -3 0 -7 -4 -11 -9z"/>
<path d="M1210 7039 c0 -5 5 -7 10 -4 6 3 10 8 10 11 0 2 -4 4 -10 4 -5 0 -10
-5 -10 -11z"/>
<path d="M1112 6948 c-14 -14 -16 -28 -3 -28 9 0 24 30 18 36 -2 2 -9 -2 -15
-8z"/>
<path d="M1065 6910 c-10 -11 -15 -23 -12 -27 4 -3 7 -1 7 5 0 7 9 12 20 12
20 0 27 14 11 24 -4 3 -16 -3 -26 -14z"/>
<path d="M1045 6862 c3 -3 -1 -12 -7 -21 -8 -10 -4 -9 10 3 26 23 26 23 7 23
-8 0 -13 -3 -10 -5z"/>
<path d="M995 6849 c-3 -4 2 -6 10 -5 21 3 28 13 10 13 -9 0 -18 -4 -20 -8z"/>
<path d="M976 6788 c3 -4 9 -8 15 -8 5 0 9 4 9 8 0 5 -7 9 -15 9 -8 0 -12 -4
-9 -9z"/>
<path d="M953 6775 c0 -8 4 -12 9 -9 5 3 6 10 3 15 -9 13 -12 11 -12 -6z"/>
<path d="M9970 6760 c-12 -8 -11 -10 5 -10 17 0 17 -2 -5 -13 -14 -7 -26 -23
-28 -35 -3 -19 -6 -21 -18 -11 -12 10 -13 9 -8 -6 5 -13 4 -16 -4 -11 -7 4
-12 1 -12 -9 0 -8 -7 -18 -15 -21 -8 -4 -12 -11 -8 -17 4 -7 0 -8 -12 -3 -15
5 -16 4 -5 -9 7 -8 9 -15 4 -15 -5 0 -20 -10 -34 -21 -14 -11 -19 -18 -12 -14
6 3 12 1 12 -4 0 -6 -6 -11 -14 -11 -8 0 -17 -7 -20 -16 -4 -9 -13 -14 -21
-10 -18 6 -19 1 -5 -25 6 -11 7 -19 3 -18 -21 4 -33 -2 -33 -17 0 -8 -4 -13
-9 -9 -12 7 -33 -29 -23 -40 4 -5 1 -5 -6 -1 -7 4 -9 12 -6 18 4 6 -2 6 -15
-1 -11 -7 -20 -15 -20 -19 3 -19 -2 -32 -12 -29 -6 1 -14 -4 -16 -11 -3 -8 2
-10 14 -6 14 5 15 4 4 -4 -8 -6 -19 -8 -26 -6 -6 3 -17 -7 -23 -21 -6 -14 -17
-25 -24 -25 -9 0 -8 -3 2 -10 10 -6 11 -10 3 -10 -7 0 -13 -10 -13 -22 0 -18
-2 -20 -10 -8 -5 8 -12 11 -16 7 -4 -3 -1 -13 5 -21 7 -8 8 -17 3 -20 -6 -3
-13 2 -17 12 -6 15 -8 14 -18 -8 -5 -14 -9 -29 -8 -33 1 -5 -3 -6 -8 -3 -5 3
-16 -10 -25 -29 -9 -19 -19 -35 -22 -35 -3 0 -2 4 1 10 3 6 -1 7 -10 4 -13 -5
-13 -9 -3 -22 11 -13 10 -14 -10 -8 -17 6 -22 3 -22 -9 0 -9 -3 -14 -8 -11 -4
2 -16 -3 -27 -11 -13 -10 -14 -14 -4 -10 9 3 16 0 16 -9 0 -7 -4 -11 -9 -8
-10 6 -68 -50 -68 -66 0 -6 -4 -9 -9 -6 -11 7 -34 -20 -27 -33 3 -5 -1 -12
-10 -15 -8 -3 -12 -10 -9 -16 3 -5 1 -11 -4 -11 -6 -1 -15 -2 -20 -3 -5 0 -13
-5 -18 -10 -4 -5 -3 -6 4 -2 6 3 14 2 18 -4 3 -5 1 -10 -5 -10 -7 0 -10 -7 -7
-15 4 -8 1 -17 -5 -21 -7 -4 -8 -3 -4 4 5 8 0 12 -13 12 -15 0 -21 -6 -21 -21
0 -13 -4 -18 -12 -13 -7 4 -8 3 -4 -4 4 -6 -4 -22 -16 -34 -13 -13 -22 -27
-20 -32 2 -5 -3 -6 -11 -3 -8 3 -20 1 -28 -5 -11 -8 -10 -9 4 -4 22 7 24 -29
1 -38 -8 -3 -12 -2 -9 3 3 5 0 13 -6 17 -8 4 -9 3 -5 -5 4 -6 1 -14 -8 -17 -8
-3 -18 -14 -21 -25 -4 -10 -13 -19 -21 -19 -9 0 -14 -7 -12 -17 2 -12 -3 -18
-14 -17 -15 1 -16 -2 -7 -20 10 -17 9 -19 -2 -8 -15 14 -33 16 -25 3 3 -5 -1
-11 -9 -15 -9 -3 -12 -12 -8 -22 5 -13 3 -15 -8 -9 -12 7 -12 6 1 -11 8 -10
11 -16 7 -13 -5 4 -20 -4 -34 -17 -14 -13 -35 -24 -47 -24 -17 0 -18 -2 -6
-10 13 -8 12 -10 -3 -10 -10 0 -15 -4 -12 -10 3 -5 0 -10 -7 -10 -9 0 -9 -3 2
-10 13 -8 12 -10 -3 -10 -11 0 -15 -4 -11 -12 5 -7 2 -9 -8 -5 -22 8 -29 -2
-18 -23 6 -12 5 -17 -5 -17 -8 0 -11 5 -8 10 3 6 1 7 -6 3 -6 -4 -9 -11 -7
-15 8 -13 -24 -51 -42 -51 -13 0 -14 -2 -3 -9 9 -6 10 -11 2 -15 -6 -4 -15 -5
-20 -2 -11 7 -55 -50 -66 -84 -11 -37 -36 -61 -56 -55 -9 3 -20 1 -24 -5 -3
-5 0 -10 7 -10 8 -1 6 -6 -6 -15 -11 -8 -14 -15 -8 -15 10 0 10 -3 0 -14 -11
-12 -14 -11 -20 3 -4 10 -7 11 -7 3 -1 -7 -6 -10 -11 -7 -6 4 -10 3 -9 -2 4
-14 -18 -58 -35 -72 -9 -7 -16 -21 -16 -30 0 -13 -2 -13 -9 -2 -7 10 -10 10
-16 1 -4 -7 -1 -17 6 -22 11 -8 11 -9 -1 -5 -9 3 -25 -2 -35 -10 -19 -14 -19
-15 5 -8 l25 7 -22 -16 c-12 -9 -20 -23 -17 -30 4 -9 -5 -16 -25 -21 -17 -4
-29 -10 -27 -13 2 -4 -10 -23 -27 -42 -18 -19 -29 -31 -24 -26 4 6 7 14 7 19
0 5 -10 -3 -22 -19 -12 -16 -26 -31 -30 -34 -9 -7 -32 -63 -29 -73 1 -5 -4 -7
-11 -4 -7 2 -12 10 -10 17 2 10 -1 10 -14 0 -11 -10 -12 -16 -4 -18 7 -3 3
-10 -10 -19 -12 -8 -19 -21 -16 -29 3 -8 1 -14 -3 -14 -5 0 -12 6 -14 13 -3 7
-6 5 -6 -5 -1 -10 -6 -18 -12 -18 -5 0 -7 -4 -4 -10 3 -5 0 -7 -8 -4 -8 3 -20
-3 -28 -12 -9 -12 -10 -15 -1 -10 7 4 12 1 12 -9 0 -9 -4 -13 -10 -10 -5 3
-10 -1 -10 -10 0 -9 -4 -14 -9 -11 -5 4 -7 -4 -4 -16 3 -13 1 -19 -4 -13 -11
13 -36 18 -28 6 3 -6 -4 -15 -15 -21 -11 -6 -18 -15 -15 -21 4 -5 -1 -16 -9
-25 -9 -8 -16 -22 -16 -30 0 -8 -4 -13 -10 -9 -11 7 -42 -49 -33 -59 7 -6 -12
-10 -36 -6 -9 1 -12 -4 -7 -15 4 -13 2 -16 -9 -11 -8 3 -15 1 -15 -4 0 -6 5
-10 12 -10 6 0 1 -9 -12 -20 -27 -23 -36 -25 -44 -7 -4 6 -4 -2 -2 -18 4 -26
1 -31 -17 -32 -17 -2 -19 0 -7 7 8 5 10 10 4 10 -16 0 -23 -10 -17 -26 3 -8
10 -11 16 -7 6 3 7 1 3 -5 -4 -6 -14 -8 -23 -5 -12 5 -15 2 -10 -10 3 -9 1
-19 -5 -23 -6 -4 -8 -3 -5 3 3 5 0 10 -6 10 -9 0 -12 -10 -9 -29 3 -17 0 -28
-7 -28 -7 0 -10 4 -6 9 3 5 1 12 -5 16 -5 3 -10 1 -10 -5 0 -10 -62 -77 -67
-72 -2 1 -3 0 -3 -3 1 -3 -6 -12 -14 -21 -8 -8 -13 -21 -10 -28 3 -9 -2 -13
-15 -12 -11 0 -19 -2 -18 -5 4 -12 -25 -39 -36 -32 -6 3 -7 1 -3 -6 4 -6 12
-9 17 -6 5 3 6 -1 3 -10 -4 -9 -12 -14 -19 -11 -19 7 -61 -42 -57 -66 3 -15
-1 -19 -10 -15 -14 5 -52 -34 -48 -49 1 -4 -5 -11 -14 -16 -9 -5 -14 -13 -12
-17 3 -4 -5 -13 -17 -21 -21 -12 -21 -12 -8 6 14 18 14 18 -5 1 -16 -15 -17
-19 -4 -28 11 -7 8 -8 -12 -5 -22 4 -28 1 -28 -13 0 -10 -7 -24 -15 -31 -9 -7
-14 -19 -11 -26 3 -7 0 -16 -6 -20 -7 -4 -8 -3 -4 4 4 7 2 12 -4 12 -7 0 -14
-9 -17 -19 -3 -13 -10 -18 -21 -13 -15 5 -15 4 -3 -11 8 -10 11 -20 7 -24 -3
-3 -6 -1 -6 5 0 7 -7 12 -16 12 -8 0 -13 -4 -10 -9 4 -5 3 -11 -1 -14 -5 -2
-3 -2 4 -1 7 2 15 -1 18 -6 6 -9 -8 -14 -28 -11 -5 1 -6 -2 -3 -7 3 -5 -2 -18
-10 -28 -14 -17 -15 -17 -10 -1 7 22 -7 22 -25 0 -12 -14 -12 -16 0 -8 11 6
10 2 -2 -16 -9 -13 -17 -36 -17 -51 0 -15 -4 -29 -9 -32 -4 -3 -11 -25 -15
-48 -7 -45 -44 -166 -56 -183 -4 -5 -13 -27 -19 -47 -21 -63 -113 -239 -176
-333 -32 -50 -62 -92 -65 -95 -3 -3 -27 -32 -55 -65 -94 -112 -260 -265 -365
-335 -12 -8 -28 -20 -34 -25 -18 -17 -174 -105 -186 -105 -5 0 -10 -4 -10 -8
0 -5 -18 -15 -40 -22 -22 -7 -40 -16 -40 -21 0 -4 -12 -10 -27 -14 -15 -3 -48
-16 -73 -27 -25 -12 -50 -21 -57 -21 -7 0 -10 -4 -7 -9 3 -4 -2 -8 -11 -8 -9
0 -13 -4 -10 -10 3 -5 -7 -18 -22 -27 -15 -10 -29 -25 -31 -33 -2 -8 -8 -19
-13 -25 -7 -7 -9 -5 -6 5 2 8 2 12 0 7 -3 -4 -9 -5 -14 -2 -5 4 -6 -1 -3 -9 3
-9 11 -16 17 -16 6 0 0 -8 -13 -17 -14 -9 -28 -22 -33 -29 -14 -24 -39 -44
-47 -39 -8 5 -25 -24 -21 -38 1 -5 -3 -6 -8 -3 -5 3 -14 -1 -21 -9 -9 -11 -9
-15 -1 -15 7 0 9 -4 6 -10 -3 -5 -15 -10 -26 -10 -11 0 -17 -5 -14 -10 4 -6
12 -7 18 -3 7 4 5 -2 -3 -13 -22 -29 -24 -30 -18 -13 4 9 1 16 -8 16 -9 0 -12
-8 -8 -24 4 -13 2 -23 -2 -22 -16 4 -44 -13 -38 -22 8 -13 -10 -11 -26 3 -8 7
-7 4 2 -7 14 -17 14 -22 2 -33 -12 -11 -14 -10 -15 5 0 10 -6 2 -12 -18 -9
-26 -17 -35 -29 -34 -10 2 -21 -2 -25 -7 -3 -7 -1 -8 5 -4 7 4 12 2 12 -3 0
-6 -8 -11 -17 -11 -15 0 -16 -2 -3 -10 13 -9 7 -14 -12 -11 -5 0 -8 -5 -8 -11
0 -10 -3 -9 -9 1 -7 10 -11 5 -16 -18 -4 -17 -11 -29 -16 -26 -5 4 -6 -1 -3
-9 6 -14 -5 -21 -28 -17 -13 2 -9 -17 5 -23 6 -4 2 -4 -10 -2 -18 3 -21 0 -17
-20 3 -17 0 -24 -11 -24 -9 0 -14 -4 -10 -9 3 -5 1 -12 -4 -15 -5 -4 -13 -1
-17 5 -5 8 -3 9 6 4 9 -5 11 -4 6 4 -11 16 -26 3 -19 -16 4 -10 2 -14 -4 -10
-5 4 -15 -4 -21 -18 -6 -13 -23 -31 -37 -41 -14 -9 -25 -23 -25 -30 0 -8 -4
-15 -10 -15 -5 -1 -15 -2 -21 -3 -6 0 -18 -12 -26 -26 -13 -22 -13 -23 0 -8 8
10 20 18 28 18 8 0 -1 -10 -18 -22 -18 -13 -33 -28 -33 -35 0 -7 -8 -17 -17
-22 -10 -6 -14 -11 -9 -11 11 0 -34 -40 -45 -40 -5 0 -11 -11 -15 -25 -3 -13
-11 -23 -18 -22 -6 1 -10 -3 -9 -10 2 -7 -3 -10 -11 -7 -9 3 -19 -4 -26 -18
-11 -22 -10 -22 4 -4 13 16 16 17 16 4 0 -18 -26 -31 -43 -21 -7 4 -6 -1 2
-10 11 -14 11 -17 0 -17 -12 0 -12 -2 -1 -9 10 -6 8 -10 -10 -16 -12 -4 -27
-6 -33 -5 -5 1 -7 -1 -3 -5 4 -4 0 -14 -8 -22 -8 -9 -13 -22 -9 -31 4 -12 2
-12 -8 -4 -17 14 -27 6 -28 -22 0 -12 -3 -15 -6 -8 -2 6 -9 12 -14 12 -6 0 -5
-8 1 -20 7 -14 7 -20 0 -20 -5 0 -10 -7 -10 -16 0 -14 -1 -14 -16 0 -19 20
-21 20 -21 1 0 -8 5 -11 10 -8 6 4 7 1 3 -6 -5 -7 -13 -10 -20 -8 -7 3 -13 -3
-13 -13 -1 -10 -11 -28 -23 -40 -11 -11 -18 -26 -14 -32 4 -7 3 -8 -5 -4 -20
13 -50 -3 -46 -25 2 -11 -2 -22 -10 -25 -7 -3 -12 -13 -10 -23 2 -14 -3 -17
-25 -16 -20 1 -27 -3 -26 -13 3 -19 -24 -52 -41 -52 -7 0 -13 -7 -13 -16 0 -9
-5 -12 -13 -8 -7 5 -6 0 3 -11 9 -11 10 -16 2 -11 -8 5 -12 0 -12 -16 0 -18
-2 -20 -10 -8 -7 11 -10 11 -10 2 0 -7 -5 -10 -10 -7 -6 4 -10 3 -9 -2 4 -21
-2 -34 -13 -27 -6 4 -8 3 -5 -3 13 -21 -17 -59 -45 -58 -24 2 -26 -1 -22 -29
2 -20 0 -26 -5 -17 -6 9 -11 10 -15 2 -4 -6 -4 -15 -1 -21 3 -5 2 -10 -4 -10
-5 0 -11 5 -13 12 -3 7 -11 -2 -19 -20 -7 -18 -18 -32 -22 -32 -5 0 -6 -4 -3
-8 2 -4 -4 -19 -15 -32 -11 -14 -18 -20 -17 -14 2 7 -1 12 -7 13 -5 0 -10 -7
-10 -16 0 -9 -7 -18 -15 -20 -12 -4 -12 -3 -1 5 9 7 10 12 2 16 -10 6 -15 -5
-12 -26 0 -4 -8 -10 -19 -13 -11 -4 -18 -11 -15 -16 4 -5 1 -9 -4 -9 -6 0 -11
-9 -11 -21 0 -13 4 -18 12 -13 7 5 8 3 3 -6 -6 -10 -11 -10 -20 4 -12 15 -13
15 -19 -1 -4 -10 -6 -18 -4 -19 2 0 -10 -12 -25 -26 -19 -18 -24 -28 -15 -31
8 -4 5 -8 -10 -12 -12 -4 -22 -11 -22 -15 0 -5 -8 -11 -18 -13 -9 -3 1312 -5
2936 -6 l2952 -1 0 3372 c0 1855 -4 3378 -8 3385 -5 8 -13 9 -22 3z m8 -37
c-10 -2 -18 -9 -18 -15 0 -6 -3 -9 -6 -5 -10 10 6 27 24 26 15 -1 15 -2 0 -6z
m-673 -753 c3 -5 -1 -10 -10 -10 -9 0 -13 5 -10 10 3 6 8 10 10 10 2 0 7 -4
10 -10z m-606 -716 c-6 -8 -17 -14 -23 -14 -6 0 -3 5 7 11 9 6 14 15 11 21 -4
7 -2 8 5 4 9 -6 9 -11 0 -22z m-159 -188 c0 -2 -7 -7 -16 -10 -8 -3 -12 -2 -9
4 6 10 25 14 25 6z m-1021 -1167 c-24 -15 -29 -10 -11 11 10 12 18 16 21 9 2
-6 -3 -15 -10 -20z m-59 -69 c0 -5 -5 -10 -11 -10 -5 0 -7 5 -4 10 3 6 8 10
11 10 2 0 4 -4 4 -10z m-126 -148 c3 -5 -1 -9 -9 -9 -8 0 -12 4 -9 9 3 4 7 8
9 8 2 0 6 -4 9 -8z m-1594 -1836 c0 -3 -4 -8 -10 -11 -5 -3 -10 -1 -10 4 0 6
5 11 10 11 6 0 10 -2 10 -4z m-950 -1100 c0 -3 -4 -8 -10 -11 -5 -3 -10 -1
-10 4 0 6 5 11 10 11 6 0 10 -2 10 -4z m-50 -40 c0 -3 -4 -8 -10 -11 -5 -3
-10 -1 -10 4 0 6 5 11 10 11 6 0 10 -2 10 -4z m-450 -526 c0 -5 -8 -10 -17
-10 -15 0 -16 2 -3 10 19 12 20 12 20 0z m-20 -28 c0 -5 -7 -9 -15 -9 -8 0
-12 4 -9 9 3 4 9 8 15 8 5 0 9 -4 9 -8z"/>
<path d="M850 6639 c-7 -11 -10 -23 -7 -25 2 -2 9 7 15 21 14 30 7 33 -8 4z"/>
<path d="M790 6574 c0 -8 5 -12 10 -9 6 3 10 10 10 16 0 5 -4 9 -10 9 -5 0
-10 -7 -10 -16z"/>
<path d="M760 6540 c-9 -6 -10 -10 -3 -10 6 0 15 5 18 10 8 12 4 12 -15 0z"/>
<path d="M705 6459 c-4 -6 -5 -12 -2 -15 2 -3 7 2 10 11 7 17 1 20 -8 4z"/>
<path d="M640 6420 c0 -5 4 -10 9 -10 6 0 13 5 16 10 3 6 -1 10 -9 10 -9 0
-16 -4 -16 -10z"/>
<path d="M619 6387 c5 -5 17 -5 28 2 16 9 15 10 -9 9 -16 -2 -24 -6 -19 -11z"/>
<path d="M595 6368 c4 -11 2 -18 -4 -18 -6 0 -10 -6 -8 -12 1 -7 -3 -12 -10
-11 -7 2 -10 -4 -6 -13 5 -12 10 -9 26 16 15 24 17 34 8 43 -9 9 -11 8 -6 -5z"/>
<path d="M445 6180 c-3 -5 -1 -10 4 -10 6 0 11 5 11 10 0 6 -2 10 -4 10 -3 0
-8 -4 -11 -10z"/>
<path d="M377 6089 c-4 -16 -3 -18 9 -8 16 13 19 29 5 29 -5 0 -11 -9 -14 -21z"/>
<path d="M334 6068 c-4 -6 -3 -8 4 -4 5 3 13 0 15 -6 3 -8 6 -6 6 5 1 19 -14
23 -25 5z"/>
<path d="M323 6031 c0 -11 5 -18 9 -15 4 3 5 11 1 19 -7 21 -12 19 -10 -4z"/>
<path d="M271 5997 c-10 -16 -11 -22 -2 -25 9 -3 9 -8 -1 -20 -8 -11 -5 -10 8
2 14 13 16 20 6 23 -10 4 -10 8 -1 19 7 8 10 16 8 19 -3 2 -11 -6 -18 -18z"/>
<path d="M230 5940 c0 -5 5 -10 11 -10 5 0 7 5 4 10 -3 6 -8 10 -11 10 -2 0
-4 -4 -4 -10z"/>
<path d="M215 5910 c-3 -6 1 -7 9 -4 18 7 21 14 7 14 -6 0 -13 -4 -16 -10z"/>
<path d="M151 5844 c-12 -15 -21 -32 -20 -38 0 -6 5 -1 11 12 6 12 14 22 18
22 5 0 10 7 14 15 8 22 0 18 -23 -11z"/>
<path d="M84 5768 c0 -10 1 -18 3 -18 1 0 7 8 12 18 7 13 6 19 -2 19 -7 0 -13
-9 -13 -19z"/>
<path d="M8736 5345 c-3 -8 -1 -15 4 -15 6 0 10 7 10 15 0 8 -2 15 -4 15 -2 0
-6 -7 -10 -15z"/>
<path d="M8620 5197 c0 -8 -8 -18 -17 -20 -17 -4 -17 -5 0 -6 18 -1 35 25 23
36 -3 4 -6 -1 -6 -10z"/>
<path d="M8365 4909 c-9 -14 -2 -20 14 -10 8 6 9 11 3 15 -6 3 -14 1 -17 -5z"/>
<path d="M7956 4443 c-6 -14 -5 -15 5 -6 7 7 10 15 7 18 -3 3 -9 -2 -12 -12z"/>
<path d="M7900 4380 c0 -5 5 -10 11 -10 5 0 7 5 4 10 -3 6 -8 10 -11 10 -2 0
-4 -4 -4 -10z"/>
<path d="M3900 3009 c0 -35 73 -138 160 -228 52 -54 114 -121 138 -149 31 -37
64 -62 115 -87 40 -20 92 -47 117 -60 62 -34 99 -32 162 9 72 45 127 72 166
81 28 6 37 2 73 -32 22 -21 47 -50 55 -65 23 -45 101 -110 163 -138 32 -14 65
-30 72 -37 25 -20 91 -43 124 -43 18 0 43 8 56 18 37 29 117 69 194 98 39 15
91 42 116 60 49 36 146 151 179 212 22 40 27 118 9 124 -7 2 -40 -10 -74 -27
-140 -69 -259 -103 -450 -130 -115 -17 -420 -19 -544 -5 -303 35 -574 156
-758 340 -40 40 -73 66 -73 59z"/>
<path d="M5277 2111 c-16 -27 -16 -31 -1 -46 32 -32 72 0 60 48 -9 36 -37 35
-59 -2z"/>
<path d="M4457 2074 c-40 -26 -63 -63 -54 -87 3 -9 28 -17 69 -21 34 -4 78 -9
97 -13 31 -5 33 -4 26 18 -4 13 -15 33 -25 44 -10 11 -25 35 -34 53 -20 38
-29 39 -79 6z"/>
</g>
</svg>
